<?xml version="1.0" encoding="UTF-8"?>
<svg width="746px" height="143px" viewBox="0 0 746 143" version="1.1" xmlns="http://www.w3.org/2000/svg" xmlns:xlink="http://www.w3.org/1999/xlink">
    <!-- Generator: Sketch 48.1 (47250) - http://www.bohemiancoding.com/sketch -->
    <title>Combined Shape</title>
    <desc>Created with Sketch.</desc>
    <defs></defs>
    <g id="logo-present" stroke="none" stroke-width="1" fill="none" fill-rule="evenodd" transform="translate(-340.000000, -837.000000)">
        <path d="M534.326003,838 C544.972809,838 553.390315,841.408775 559.578771,848.226429 C565.767227,855.044082 568.861409,864.078991 568.861409,875.331429 C568.861409,878.508587 568.728326,880.95761 568.462156,882.678571 C567.397475,891.150995 564.902167,898.630444 560.976157,905.117143 C557.050147,911.603842 551.99299,916.601173 545.804534,920.109286 C539.616077,923.617398 532.795569,925.371429 525.342805,925.371429 L514.562967,925.371429 C513.897541,925.371429 513.43175,925.768567 513.16558,926.562857 L507.376408,974.021429 C507.243323,974.9481 506.877345,975.676188 506.278462,976.205714 C505.679579,976.735241 504.980893,977 504.182382,977 L473.439882,977 C472.641371,977 472.009226,976.735241 471.543429,976.205714 C471.077631,975.676188 470.911277,974.9481 471.044362,974.021429 L487.413745,840.978571 C487.546831,840.0519 487.912809,839.323812 488.511692,838.794286 C489.110575,838.264759 489.809261,838 490.607771,838 L534.326003,838 Z M520.551765,897.515363 C523.479637,897.515363 525.974945,896.41691 528.037764,894.219972 C530.100583,892.023034 531.398143,888.727676 531.930483,884.333799 C532.063568,883.534912 532.13011,882.403173 532.13011,880.938547 C532.13011,877.609853 531.398153,875.080083 529.934217,873.349162 C528.470281,871.618241 526.474035,870.752793 523.945418,870.752793 L521.350272,870.752793 C520.551762,870.752793 520.152512,871.152231 520.152512,871.951117 L517.158113,896.317039 C517.025028,897.115926 517.357735,897.515363 518.156246,897.515363 L520.551765,897.515363 Z M580.421606,977 C579.623096,977 578.990951,976.735241 578.525153,976.205714 C578.059355,975.676188 577.893002,974.9481 578.026087,974.021429 L594.39547,840.978571 C594.528555,840.0519 594.894534,839.323812 595.493417,838.794286 C596.092299,838.264759 596.790986,838 597.589496,838 L628.331997,838 C629.130507,838 629.762652,838.264759 630.22845,838.794286 C630.694247,839.323812 630.860601,840.0519 630.727516,840.978571 L614.358133,974.021429 C614.225048,974.9481 613.859069,975.676188 613.260186,976.205714 C612.661303,976.735241 611.962617,977 611.164107,977 L580.421606,977 Z M680.419191,980 C668.840789,980 659.691326,976.804501 652.97053,970.413408 C646.249733,964.022314 642.889385,955.301266 642.889385,944.25 C642.889385,942.918522 643.022468,940.655044 643.288638,937.459497 L650.475197,879.141061 C652.072218,866.225727 657.195917,855.973502 665.846447,848.384078 C674.496978,840.794655 685.210166,837 697.986334,837 C709.564736,837 718.747469,840.162212 725.534809,846.486732 C732.322148,852.811251 735.715767,861.499014 735.715767,872.550279 C735.715767,873.748609 735.582684,875.945515 735.316513,879.141061 L735.116887,880.139665 C734.983802,881.071699 734.617823,881.837288 734.01894,882.436453 C733.420057,883.035618 732.721371,883.335196 731.922861,883.335196 L701.18036,884.333799 C699.184084,884.333799 698.319044,883.401778 698.585214,881.537709 L699.184094,876.544693 C699.450264,874.28118 699.117556,872.483712 698.185961,871.152235 C697.254365,869.820757 695.923534,869.155028 694.193428,869.155028 C692.330237,869.155028 690.766511,869.820757 689.502202,871.152235 C688.237894,872.483712 687.472666,874.28118 687.206496,876.544693 L679.421058,940.655028 C679.154888,942.785392 679.454325,944.516288 680.319378,945.847765 C681.184431,947.179243 682.548532,947.844972 684.411723,947.844972 C686.274915,947.844972 687.838641,947.21253 689.102949,945.947626 C690.367258,944.682722 691.132485,942.91854 691.398655,940.655028 L691.997535,935.26257 C692.13062,934.330535 692.496599,933.63152 693.095482,933.165503 C693.694365,932.699486 694.393051,932.46648 695.191561,932.46648 L725.734435,933.465084 C726.666031,933.465084 727.364717,933.631516 727.830515,933.964385 C728.296313,934.297255 728.462666,934.796552 728.329581,935.462291 L728.129955,937.459497 C726.532934,950.374832 721.375964,960.69363 712.658891,968.416201 C703.941818,976.138772 693.195359,980 680.419191,980 Z M749.075395,977 C748.1438,977 747.445113,976.735241 746.979316,976.205714 C746.513518,975.676188 746.347164,974.9481 746.480249,974.021429 L762.849632,840.978571 C762.982718,840.0519 763.348696,839.323812 763.947579,838.794286 C764.546462,838.264759 765.245148,838 766.043659,838 L796.386906,838 C797.983927,838 799.048592,838.728088 799.580932,840.184286 L809.76189,865.402857 C810.02806,865.800002 810.327497,865.998571 810.66021,865.998571 C810.992922,865.998571 811.225818,865.800002 811.358903,865.402857 L827.927913,840.184286 C828.726423,838.728088 829.924171,838 831.521192,838 L861.864439,838 C862.66295,838 863.295095,838.264759 863.760892,838.794286 C864.22669,839.323812 864.393044,840.0519 864.259959,840.978571 L847.890576,974.021429 C847.75749,974.9481 847.391512,975.676188 846.792629,976.205714 C846.193746,976.735241 845.49506,977 844.69655,977 L813.954049,977 C813.155538,977 812.523394,976.735241 812.057596,976.205714 C811.591798,975.676188 811.425444,974.9481 811.558529,974.021429 L821.539861,893.202857 C821.539861,892.540949 821.406778,892.176905 821.140608,892.110714 C820.874437,892.044523 820.54173,892.276188 820.142474,892.805714 L806.76749,911.868571 L804.371971,915.442857 L804.172344,915.442857 L794.191013,892.408571 C794.057928,891.879045 793.825032,891.647381 793.49232,891.713571 C793.159607,891.779762 792.926712,892.143806 792.793627,892.805714 L782.812295,974.021429 C782.67921,974.9481 782.346502,975.676188 781.814162,976.205714 C781.281822,976.735241 780.549865,977 779.618269,977 L749.075395,977 Z M930.917105,977 C929.053914,977 928.188874,976.073343 928.321959,974.22 L928.321959,959.327143 C928.455044,958.929998 928.355232,958.632144 928.022519,958.433571 C927.689806,958.234999 927.390369,958.135714 927.124199,958.135714 L910.155936,958.135714 C909.49051,958.135714 908.958178,958.466663 908.558923,959.128571 L904.366764,974.22 C903.967508,976.073343 902.836302,977 900.973111,977 L870.629864,977 C868.633587,977 867.90163,975.940963 868.433971,973.822857 L912.351829,840.581429 C912.884169,838.860468 914.081917,838 915.945108,838 L951.279021,838 C953.142212,838 954.140335,838.860468 954.27342,840.581429 L965.252885,973.822857 C965.252885,976.073343 964.254762,977 962.258485,977 L930.917105,977 Z M916.342965,929.47067 C915.94371,930.269557 916.276418,930.668994 917.341098,930.668994 L925.925043,930.668994 C926.590469,930.668994 926.989718,930.269557 927.122803,929.47067 L926.923177,895.518156 C926.923177,894.852418 926.756823,894.519553 926.42411,894.519553 C926.091397,894.519553 925.858502,894.852418 925.725417,895.518156 L916.342965,929.47067 Z M378.62055,888.142686 L340.449155,841.262809 C339.751725,840.406266 339.880712,839.146522 340.737255,838.449092 C341.09401,838.158609 341.540003,838 342.000063,838 L387.492183,838 C387.536435,838.000835 387.581003,838 387.625886,838 L459.358053,838 C460.29051,838 460.989841,838.264759 461.456069,838.794286 C461.922297,839.323812 462.088805,840.0519 461.955597,840.978571 L458.75862,866.991429 C458.625412,867.9181 458.259096,868.646188 457.659659,869.175714 C457.060223,869.705241 456.294289,869.97 455.361832,869.97 L418.396788,869.97 C417.59754,869.97 417.197922,870.367139 417.197922,871.161429 L414.800189,890.224286 C414.666981,891.018575 414.999996,891.415714 415.799244,891.415714 L434.981105,891.415714 C435.913561,891.415714 436.612893,891.680474 437.079121,892.21 C437.545349,892.739526 437.711857,893.467614 437.578649,894.394286 L434.381672,920.407143 C433.982048,922.392867 432.849797,923.385714 430.984884,923.385714 L411.803023,923.385714 C411.003775,923.385714 410.604157,923.782853 410.604157,924.577143 L408.206424,943.838571 C408.073216,944.632861 408.406231,945.03 409.20548,945.03 L446.170524,945.03 C447.10298,945.03 447.802312,945.294759 448.26854,945.824286 C448.734768,946.353812 448.901276,947.0819 448.768068,948.008571 L445.571091,974.021429 C445.437883,974.9481 445.071566,975.676188 444.47213,976.205714 C443.872694,976.735241 443.106759,977 442.174303,977 L370.442136,977 C369.642887,977 369.010159,976.735241 368.543931,976.205714 C368.077703,975.676188 367.911195,974.9481 368.044403,974.021429 L378.62055,888.142686 Z M981.196021,977 C979.599,977 978.800501,976.404292 978.800501,975.212857 L979.199755,973.624286 L1012.73703,908.294286 C1012.87011,908.029522 1012.93665,907.500004 1012.93665,906.705714 L995.569138,841.375714 C995.436053,841.110951 995.369511,840.780002 995.369511,840.382857 C995.369511,838.794278 996.367635,838 998.363911,838 L1029.30604,838 C1030.10455,838 1030.76996,838.231664 1031.3023,838.695 C1031.83464,839.158336 1032.16735,839.787139 1032.30044,840.581429 L1036.69222,867.785714 C1036.82531,868.315241 1037.0582,868.58 1037.39092,868.58 C1037.72363,868.58 1037.95652,868.315241 1038.08961,867.785714 L1049.2687,840.581429 C1049.93413,838.860468 1051.13187,838 1052.86198,838 L1083.60448,838 C1085.2015,838 1086,838.595708 1086,839.787143 L1085.60075,841.375714 L1052.06347,906.705714 C1051.93039,906.970478 1051.86385,907.499996 1051.86385,908.294286 L1069.23136,973.624286 C1069.36445,973.889049 1069.43099,974.219998 1069.43099,974.617143 C1069.43099,976.205722 1068.43287,977 1066.43659,977 L1035.89372,977 C1035.09521,977 1034.42979,976.768336 1033.89745,976.305 C1033.36511,975.841664 1033.0324,975.212861 1032.89932,974.418571 L1028.3079,947.412857 C1028.17482,946.883331 1027.94192,946.618571 1027.60921,946.618571 C1027.2765,946.618571 1026.97706,946.883331 1026.71089,947.412857 L1015.5318,974.418571 C1014.86638,976.139532 1013.66863,977 1011.93852,977 L981.196021,977 Z" id="Combined-Shape" fill="#282626"></path>
    </g>
</svg>